<svg width="11" height="9" viewBox="0 0 11 9" fill="none" xmlns="http://www.w3.org/2000/svg">
<path fill-rule="evenodd" clip-rule="evenodd" d="M9.00716 0.284356C9.19025 0.10286 9.43742 0.000715026 9.69523 3.73965e-06C9.95303 -0.000707547 10.2008 0.100072 10.3849 0.280555C10.5689 0.461038 10.6746 0.706723 10.679 0.964492C10.6834 1.22226 10.5862 1.4714 10.4083 1.65806L5.18566 8.1864C5.0959 8.28308 4.98757 8.36066 4.86713 8.41452C4.7467 8.46837 4.61665 8.49739 4.48475 8.49983C4.35285 8.50227 4.22181 8.47809 4.09947 8.42873C3.97712 8.37938 3.86599 8.30585 3.77271 8.21256L0.312299 4.75084C0.215895 4.66101 0.138573 4.55269 0.0849436 4.43232C0.0313145 4.31196 0.00247724 4.18203 0.000152703 4.05028C-0.00217184 3.91854 0.022064 3.78767 0.0714138 3.66549C0.120764 3.54331 0.194217 3.43233 0.287391 3.33915C0.380566 3.24598 0.491552 3.17252 0.613731 3.12317C0.735909 3.07382 0.866776 3.04959 0.998524 3.05191C1.13027 3.05424 1.2602 3.08308 1.38056 3.1367C1.50092 3.19033 1.60925 3.26766 1.69908 3.36406L4.43863 6.1023L8.9823 0.313139C8.99041 0.303005 8.99915 0.293391 9.00847 0.284356H9.00716Z" fill="#658901"/>
</svg>
