<svg width="28" height="29" viewBox="0 0 28 29" fill="none" xmlns="http://www.w3.org/2000/svg">
<path d="M20.4714 8.57039V10.6473C20.4714 12.9423 16.5356 13.4615 14.2406 13.4615C11.9456 13.4615 8.00987 12.6412 8.00987 10.3462V8.26923M5.77925 1.00623L22.5899 1C23.112 0.999893 23.615 1.19646 23.9988 1.55056C24.3825 1.90465 24.6188 2.3903 24.6606 2.91077L26.5173 25.7548C26.5406 26.0409 26.5043 26.3286 26.4108 26.5999C26.3173 26.8712 26.1685 27.1202 25.974 27.3312C25.7794 27.5421 25.5432 27.7105 25.2804 27.8256C25.0175 27.9407 24.7336 28.0001 24.4466 28H4.02217C3.73596 28 3.45283 27.9408 3.19056 27.8262C2.9283 27.7116 2.69255 27.544 2.49811 27.334C2.30368 27.124 2.15476 26.876 2.06069 26.6057C1.96662 26.3354 1.92944 26.0485 1.95148 25.7632L3.70856 2.92323C3.74884 2.40164 3.98447 1.91447 4.36836 1.55908C4.75224 1.20368 5.25611 1.00625 5.77925 1.00623V1.00623Z" stroke="#333333" stroke-width="2" stroke-linecap="round" stroke-linejoin="round"/>
</svg>
