<svg width="23" height="24" viewBox="0 0 23 24" fill="none" xmlns="http://www.w3.org/2000/svg">
<path d="M16.4547 7.16846V8.86077C16.4547 10.7308 13.2478 11.1538 11.3778 11.1538C9.50779 11.1538 6.30086 10.4854 6.30086 8.61538V6.92308M4.48332 1.00508L18.1809 1C18.6063 0.999913 19.0162 1.16008 19.3289 1.4486C19.6415 1.73713 19.8341 2.13284 19.8681 2.55692L21.381 21.1706C21.4 21.4037 21.3704 21.6381 21.2942 21.8592C21.218 22.0803 21.0968 22.2831 20.9383 22.455C20.7797 22.6269 20.5873 22.7641 20.3731 22.8579C20.1589 22.9517 19.9276 23.0001 19.6938 23H3.05163C2.81842 23 2.58772 22.9518 2.37402 22.8584C2.16032 22.765 1.96823 22.6285 1.80981 22.4573C1.65138 22.2862 1.53003 22.0841 1.45338 21.8639C1.37674 21.6436 1.34644 21.4099 1.3644 21.1774L2.79609 2.56708C2.82891 2.14208 3.02091 1.74512 3.33371 1.45554C3.6465 1.16596 4.05706 1.00509 4.48332 1.00508V1.00508Z" stroke="#8AB809" stroke-width="2" stroke-linecap="round" stroke-linejoin="round"/>
</svg>
