<svg width="55" height="50" viewBox="0 0 55 50" fill="none" xmlns="http://www.w3.org/2000/svg">
<path fill-rule="evenodd" clip-rule="evenodd" d="M4.204 0C3.14912 0 2.13744 0.41905 1.39153 1.16496C0.645612 1.91088 0.226563 2.92255 0.226562 3.97744L0.226563 25.5692C0.226563 27.7648 2.00845 29.5467 4.204 29.5467H7.04502V33.0536C7.04525 33.7084 7.23959 34.3484 7.60348 34.8928C7.96737 35.4371 8.48447 35.8614 9.08942 36.112C9.69438 36.3625 10.36 36.4281 11.0022 36.3004C11.6445 36.1727 12.2344 35.8575 12.6975 35.3946L18.5478 29.5467H32.6143C33.6691 29.5467 34.6808 29.1276 35.4267 28.3817C36.1726 27.6358 36.5917 26.6241 36.5917 25.5692V3.97744C36.5917 2.92255 36.1726 1.91088 35.4267 1.16496C34.6808 0.41905 33.6691 0 32.6143 0H4.204ZM3.63579 3.97744C3.63579 3.82674 3.69566 3.68221 3.80222 3.57565C3.90878 3.46909 4.0533 3.40923 4.204 3.40923H32.6143C32.7649 3.40923 32.9095 3.46909 33.016 3.57565C33.1226 3.68221 33.1825 3.82674 33.1825 3.97744V25.5692C33.1825 25.7199 33.1226 25.8645 33.016 25.971C32.9095 26.0776 32.7649 26.1374 32.6143 26.1374H17.8409C17.389 26.1378 16.9557 26.3177 16.6363 26.6375L10.4543 32.8195V27.842C10.4543 27.39 10.2747 26.9564 9.95498 26.6367C9.63531 26.317 9.20173 26.1374 8.74964 26.1374H4.204C4.0533 26.1374 3.90878 26.0776 3.80222 25.971C3.69566 25.8645 3.63579 25.7199 3.63579 25.5692V3.97744Z" fill="#8AB809"/>
<path d="M51.394 17.6134C51.394 17.4627 51.3342 17.3182 51.2276 17.2116C51.121 17.1051 50.9765 17.0452 50.8258 17.0452H42.8709C42.4188 17.0452 41.9853 16.8656 41.6656 16.5459C41.3459 16.2263 41.1663 15.7927 41.1663 15.3406C41.1663 14.8885 41.3459 14.4549 41.6656 14.1353C41.9853 13.8156 42.4188 13.636 42.8709 13.636H50.8258C53.0214 13.636 54.8033 15.4179 54.8033 17.6134V39.2052C54.8033 40.2601 54.3842 41.2718 53.6383 42.0177C52.8924 42.7636 51.8807 43.1826 50.8258 43.1826H47.9848V46.6896C47.9846 47.3444 47.7902 47.9844 47.4263 48.5288C47.0624 49.0731 46.5453 49.4974 45.9404 49.7479C45.3354 49.9985 44.6698 50.0641 44.0276 49.9364C43.3854 49.8087 42.7954 49.4935 42.3323 49.0306L36.482 43.1826H24.6884C23.6335 43.1826 22.6218 42.7636 21.8759 42.0177C21.13 41.2718 20.7109 40.2601 20.7109 39.2052V35.8755C20.7109 35.4234 20.8905 34.9899 21.2102 34.6702C21.5299 34.3505 21.9635 34.1709 22.4156 34.1709C22.8676 34.1709 23.3012 34.3505 23.6209 34.6702C23.9406 34.9899 24.1202 35.4234 24.1202 35.8755V39.2052C24.1202 39.5189 24.3747 39.7734 24.6884 39.7734H37.1889C37.6408 39.7738 38.0741 39.9537 38.3935 40.2734L44.5756 46.4555V41.478C44.5756 41.0259 44.7551 40.5924 45.0748 40.2727C45.3945 39.953 45.8281 39.7734 46.2802 39.7734H50.8258C50.9765 39.7734 51.121 39.7136 51.2276 39.607C51.3342 39.5004 51.394 39.3559 51.394 39.2052V17.6134Z" fill="#8AB809"/>
</svg>
