<svg width="26" height="26" viewBox="0 0 26 26" fill="none" xmlns="http://www.w3.org/2000/svg">
<path fill-rule="evenodd" clip-rule="evenodd" d="M6.30246 18.3571H2.73103V23.7143H6.30246V18.3571ZM15.231 11.2143H11.6596V23.7143H15.231V11.2143ZM24.1596 2.28571H20.5882V23.7143H24.1596V2.28571ZM20.5882 0.5C20.1146 0.5 19.6604 0.688137 19.3255 1.02302C18.9906 1.35791 18.8025 1.81211 18.8025 2.28571V23.7143C18.8025 24.1879 18.9906 24.6421 19.3255 24.977C19.6604 25.3119 20.1146 25.5 20.5882 25.5H24.1596C24.6332 25.5 25.0874 25.3119 25.4223 24.977C25.7572 24.6421 25.9453 24.1879 25.9453 23.7143V2.28571C25.9453 1.81211 25.7572 1.35791 25.4223 1.02302C25.0874 0.688137 24.6332 0.5 24.1596 0.5H20.5882ZM9.87388 11.2143C9.87388 10.7407 10.062 10.2865 10.3969 9.9516C10.7318 9.61671 11.186 9.42857 11.6596 9.42857H15.231C15.7046 9.42857 16.1588 9.61671 16.4937 9.9516C16.8286 10.2865 17.0167 10.7407 17.0167 11.2143V23.7143C17.0167 24.1879 16.8286 24.6421 16.4937 24.977C16.1588 25.3119 15.7046 25.5 15.231 25.5H11.6596C11.186 25.5 10.7318 25.3119 10.3969 24.977C10.062 24.6421 9.87388 24.1879 9.87388 23.7143V11.2143ZM0.945312 18.3571C0.945312 17.8835 1.13345 17.4293 1.46834 17.0945C1.80322 16.7596 2.25743 16.5714 2.73103 16.5714H6.30246C6.77606 16.5714 7.23026 16.7596 7.56515 17.0945C7.90003 17.4293 8.08817 17.8835 8.08817 18.3571V23.7143C8.08817 24.1879 7.90003 24.6421 7.56515 24.977C7.23026 25.3119 6.77606 25.5 6.30246 25.5H2.73103C2.25743 25.5 1.80322 25.3119 1.46834 24.977C1.13345 24.6421 0.945313 24.1879 0.945312 23.7143V18.3571Z" fill="#333333"/>
</svg>
