<svg width="23" height="22" viewBox="0 0 23 22" fill="none" xmlns="http://www.w3.org/2000/svg">
<path fill-rule="evenodd" clip-rule="evenodd" d="M5.07366 15.7143H1.9308V20.4286H5.07366V15.7143ZM12.9308 9.42857H9.78795V20.4286H12.9308V9.42857ZM20.7879 1.57143H17.6451V20.4286H20.7879V1.57143ZM17.6451 0C17.2283 0 16.8286 0.165561 16.5339 0.460261C16.2392 0.754961 16.0737 1.15466 16.0737 1.57143V20.4286C16.0737 20.8453 16.2392 21.245 16.5339 21.5397C16.8286 21.8344 17.2283 22 17.6451 22H20.7879C21.2047 22 21.6044 21.8344 21.8991 21.5397C22.1938 21.245 22.3594 20.8453 22.3594 20.4286V1.57143C22.3594 1.15466 22.1938 0.754961 21.8991 0.460261C21.6044 0.165561 21.2047 0 20.7879 0H17.6451ZM8.21652 9.42857C8.21652 9.0118 8.38208 8.6121 8.67678 8.3174C8.97148 8.0227 9.37118 7.85714 9.78795 7.85714H12.9308C13.3476 7.85714 13.7473 8.0227 14.042 8.3174C14.3367 8.6121 14.5022 9.0118 14.5022 9.42857V20.4286C14.5022 20.8453 14.3367 21.245 14.042 21.5397C13.7473 21.8344 13.3476 22 12.9308 22H9.78795C9.37118 22 8.97148 21.8344 8.67678 21.5397C8.38208 21.245 8.21652 20.8453 8.21652 20.4286V9.42857ZM0.359375 15.7143C0.359375 15.2975 0.524936 14.8978 0.819636 14.6031C1.11434 14.3084 1.51403 14.1429 1.9308 14.1429H5.07366C5.49043 14.1429 5.89013 14.3084 6.18483 14.6031C6.47953 14.8978 6.64509 15.2975 6.64509 15.7143V20.4286C6.64509 20.8453 6.47953 21.245 6.18483 21.5397C5.89013 21.8344 5.49043 22 5.07366 22H1.9308C1.51403 22 1.11434 21.8344 0.819636 21.5397C0.524936 21.245 0.359375 20.8453 0.359375 20.4286V15.7143Z" fill="#8AB809"/>
</svg>
