<svg width="49" height="60" viewBox="0 0 49 60" fill="none" xmlns="http://www.w3.org/2000/svg">
<path fill-rule="evenodd" clip-rule="evenodd" d="M24.3713 3.99939C19.0678 3.99939 13.9815 6.1062 10.2313 9.85635C6.4812 13.6065 4.37438 18.6928 4.37438 23.9963V41.9935H0.375V23.9963C0.375 20.8451 0.995683 17.7247 2.20161 14.8133C3.40754 11.902 5.17509 9.25662 7.40336 7.02836C9.63162 4.80009 12.277 3.03254 15.1883 1.82661C18.0997 0.620683 21.2201 0 24.3713 0C27.5226 0 30.6429 0.620683 33.5543 1.82661C36.4657 3.03254 39.111 4.80009 41.3393 7.02836C43.5675 9.25662 45.3351 11.902 46.541 14.8133C47.7469 17.7247 48.3676 20.8451 48.3676 23.9963V41.9935H44.3682V23.9963C44.3682 21.3703 43.851 18.77 42.8461 16.3438C41.8411 13.9177 40.3682 11.7132 38.5113 9.85635C36.6544 7.99946 34.4499 6.5265 32.0238 5.52156C29.5977 4.51662 26.9973 3.99939 24.3713 3.99939Z" fill="#8AB809"/>
<path d="M36.3695 32.0052C36.3695 30.9445 36.7908 29.9273 37.5409 29.1773C38.2909 28.4272 39.3081 28.0059 40.3689 28.0059H48.3676V44.0034C48.3676 45.0641 47.9463 46.0814 47.1962 46.8314C46.4462 47.5814 45.4289 48.0028 44.3682 48.0028H40.3689C39.3081 48.0028 38.2909 47.5814 37.5409 46.8314C36.7908 46.0814 36.3695 45.0641 36.3695 44.0034V32.0052ZM12.3732 32.0052C12.3732 30.9445 11.9518 29.9273 11.2018 29.1773C10.4517 28.4272 9.43447 28.0059 8.37377 28.0059H0.375V44.0034C0.375 45.0641 0.796362 46.0814 1.54639 46.8314C2.29642 47.5814 3.31368 48.0028 4.37438 48.0028H8.37377C9.43447 48.0028 10.4517 47.5814 11.2018 46.8314C11.9518 46.0814 12.3732 45.0641 12.3732 44.0034V32.0052Z" fill="#8AB809"/>
<path fill-rule="evenodd" clip-rule="evenodd" d="M46.3948 34.0103C46.9251 34.0103 47.4337 34.2209 47.8088 34.5959C48.1838 34.971 48.3944 35.4796 48.3944 36.0099V48.0081C48.3944 50.6599 47.341 53.203 45.466 55.0781C43.5909 56.9532 41.0477 58.0066 38.396 58.0066H24.3981C23.8678 58.0066 23.3591 57.7959 22.9841 57.4209C22.6091 57.0459 22.3984 56.5372 22.3984 56.0069C22.3984 55.4765 22.6091 54.9679 22.9841 54.5929C23.3591 54.2179 23.8678 54.0072 24.3981 54.0072H38.396C39.987 54.0072 41.5129 53.3751 42.638 52.2501C43.763 51.125 44.3951 49.5992 44.3951 48.0081V36.0099C44.3951 35.4796 44.6057 34.971 44.9808 34.5959C45.3558 34.2209 45.8644 34.0103 46.3948 34.0103Z" fill="#8AB809"/>
<path d="M18.4102 56.0009C18.4102 54.9401 18.8315 53.9229 19.5815 53.1729C20.3316 52.4228 21.3488 52.0015 22.4095 52.0015H26.4089C27.4696 52.0015 28.4869 52.4228 29.2369 53.1729C29.9869 53.9229 30.4083 54.9401 30.4083 56.0009C30.4083 57.0616 29.9869 58.0788 29.2369 58.8288C28.4869 59.5789 27.4696 60.0002 26.4089 60.0002H22.4095C21.3488 60.0002 20.3316 59.5789 19.5815 58.8288C18.8315 58.0788 18.4102 57.0616 18.4102 56.0009Z" fill="#8AB809"/>
</svg>
