<svg width="31" height="26" viewBox="0 0 31 26" fill="none" xmlns="http://www.w3.org/2000/svg">
<path d="M27.428 2.34684C26.7082 1.64085 25.8536 1.08091 24.913 0.699001C23.9725 0.317096 22.9644 0.120719 21.9464 0.121094C20.9284 0.121469 19.9205 0.318588 18.9802 0.701186C18.04 1.08378 17.1858 1.64436 16.4665 2.35088L15.5276 3.28297L14.5965 2.3529L14.5904 2.34696C13.8709 1.6413 13.0168 1.08154 12.0768 0.699645C11.1367 0.317745 10.1292 0.121184 9.11168 0.121184C8.09418 0.121184 7.08665 0.317745 6.14661 0.699645C5.20656 1.08154 4.35242 1.6413 3.63294 2.34696L3.21466 2.7572C1.76162 4.18233 0.945312 6.11521 0.945312 8.13064C0.945312 10.1461 1.76162 12.079 3.21466 13.5041L14.254 24.3312C15.5286 25.3755 15.5286 25.3678 16.7307 24.406L27.8463 13.5039C29.2972 12.0777 30.112 10.1452 30.112 8.13047C30.112 6.11574 29.2972 4.18328 27.8463 2.75702L27.428 2.34684ZM26.4763 12.1606L15.5304 22.8964L4.58426 12.1606C3.49448 11.0917 2.88225 9.64207 2.88225 8.1305C2.88225 6.61893 3.49448 5.16927 4.58426 4.10042L5.00259 3.69018C6.09184 2.62187 7.56901 2.02145 9.10944 2.02088C10.6499 2.02031 12.1275 2.61964 13.2176 3.68715C13.2176 3.68715 14.5904 4.97069 15.5286 4.97285C16.815 4.97582 17.8402 3.69018 17.8402 3.69018C18.3798 3.16094 19.0204 2.74112 19.7255 2.45469C20.4305 2.16827 21.1861 2.02085 21.9493 2.02085C22.7124 2.02085 23.468 2.16827 24.1731 2.45469C24.8781 2.74112 25.5187 3.16094 26.0583 3.69018L26.4766 4.10036C27.5647 5.17009 28.1758 6.61946 28.1758 8.13052C28.1757 9.64157 27.5645 11.0909 26.4763 12.1606Z" fill="#333333"/>
</svg>
