<svg width="27" height="22" viewBox="0 0 27 22" fill="none" xmlns="http://www.w3.org/2000/svg">
<path d="M23.6461 2.31563L23.6461 2.31565L24.0138 2.67618C24.0139 2.67632 24.0141 2.67647 24.0142 2.67661C25.1961 3.83871 25.8581 5.41106 25.8581 7.04825C25.8581 8.68564 25.196 10.2582 24.0138 11.4203L14.2505 20.9961C13.9877 21.2063 13.8199 21.3395 13.686 21.4243C13.6213 21.4653 13.5803 21.4845 13.5552 21.4934C13.5435 21.4976 13.5367 21.4991 13.5337 21.4996L13.5309 21.5L13.5303 21.5L13.5288 21.4999C13.5278 21.4997 13.5261 21.4995 13.5235 21.4989C13.5182 21.4977 13.5086 21.495 13.4937 21.489C13.4623 21.4764 13.4149 21.4519 13.3441 21.405C13.199 21.3089 13.0158 21.1605 12.7372 20.9323L3.03854 11.4201C1.85468 10.2589 1.19141 8.68621 1.19141 7.0484C1.19141 5.4106 1.85468 3.83786 3.03854 2.67674L3.40663 2.31573L3.08321 1.98598L3.40663 2.31573C3.99291 1.74071 4.68945 1.28407 5.45674 0.972357C6.22403 0.660638 7.04674 0.50008 7.87781 0.50008C8.70888 0.50008 9.53159 0.660638 10.2989 0.972357C11.0662 1.28407 11.7627 1.74071 12.349 2.31573L12.349 2.31574L12.3527 2.31935L13.1704 3.1362L13.5227 3.48808L13.8761 3.13729L14.7004 2.31892C14.7007 2.31863 14.701 2.31835 14.7013 2.31807C15.2872 1.74275 15.9835 1.28574 16.7506 0.973609C17.5181 0.66132 18.3411 0.500307 19.1726 0.5C20.004 0.499694 20.8272 0.660102 21.5949 0.971826C22.3626 1.28354 23.0595 1.74033 23.6461 2.31563ZM23.5088 10.9517L23.5092 10.9513C24.5614 9.91706 25.1542 8.5136 25.1542 7.04831C25.1542 5.58301 24.5616 4.17952 23.5095 3.1452L23.509 3.14476L23.141 2.78383C23.1409 2.78382 23.1409 2.78381 23.1409 2.78381C22.6192 2.27213 22.0004 1.86674 21.32 1.59034C20.6396 1.31393 19.9108 1.17178 19.1749 1.17178C18.439 1.17178 17.7101 1.31393 17.0297 1.59034C16.3493 1.86675 15.7305 2.27214 15.2088 2.78383L15.187 2.8052L15.1688 2.82799L15.1686 2.82833L15.1684 2.82849L15.1683 2.82865L15.1682 2.82884L15.168 2.82906L15.1639 2.83398C15.1593 2.83956 15.1514 2.84889 15.1405 2.86143C15.1187 2.88655 15.0849 2.92428 15.0404 2.97041C14.9508 3.06325 14.821 3.18706 14.6613 3.30993C14.3306 3.56449 13.9302 3.77048 13.5259 3.76955C13.4232 3.76931 13.269 3.73094 13.0687 3.63821C12.875 3.54857 12.6729 3.42454 12.4843 3.29301C12.2971 3.1625 12.1324 3.03099 12.0142 2.93171C11.9553 2.88231 11.9086 2.84145 11.8772 2.81345C11.8616 2.79947 11.8497 2.78873 11.8421 2.78178L11.8356 2.77582C10.7824 1.74705 9.35824 1.17126 7.87565 1.17181C6.39064 1.17236 4.9647 1.75109 3.91173 2.78381C3.91172 2.78381 3.91172 2.78382 3.91171 2.78383L3.5436 3.14482L3.54357 3.14484C2.48976 4.17841 1.89591 5.58232 1.89591 7.04827C1.89591 8.51423 2.48976 9.91813 3.54357 10.9517L13.1762 20.3992L13.5263 20.7426L13.8764 20.3992L23.5088 10.9517Z" fill="#8AB809" stroke="#8AB809"/>
</svg>
