<svg width="49" height="56" viewBox="0 0 49 56" fill="none" xmlns="http://www.w3.org/2000/svg">
<path d="M46.946 37.8734V17.9199C46.9451 17.0452 46.7142 16.186 46.2764 15.4286C45.8386 14.6713 45.2094 14.0424 44.4518 13.605L26.9926 3.62827C26.2342 3.19045 25.374 2.95996 24.4984 2.95996C23.6228 2.95996 22.7625 3.19045 22.0042 3.62827L4.54496 13.605C3.78738 14.0424 3.15815 14.6713 2.72037 15.4286C2.2826 16.186 2.05168 17.0452 2.05078 17.9199V37.8734C2.05168 38.7481 2.2826 39.6073 2.72037 40.3647C3.15815 41.122 3.78738 41.7509 4.54496 42.1883L22.0042 52.165C22.7625 52.6028 23.6228 52.8333 24.4984 52.8333C25.374 52.8333 26.2342 52.6028 26.9926 52.165L44.4518 42.1883C45.2094 41.7509 45.8386 41.122 46.2764 40.3647C46.7142 39.6073 46.9451 38.7481 46.946 37.8734Z" stroke="#8AB809" stroke-width="4" stroke-linecap="round" stroke-linejoin="round"/>
<path d="M13.2305 8.46411L24.4543 14.949L35.6781 8.46411" stroke="#8AB809" stroke-width="4" stroke-linecap="round" stroke-linejoin="round"/>
<path d="M13.2746 47.3283V34.3836L2.05078 27.8987" stroke="#8AB809" stroke-width="4" stroke-linecap="round" stroke-linejoin="round"/>
<path d="M46.9308 27.8987L35.707 34.3836V47.3283" stroke="#8AB809" stroke-width="4" stroke-linecap="round" stroke-linejoin="round"/>
<path d="M2.67188 15.3232L24.4461 27.9188L46.2203 15.3232" stroke="#8AB809" stroke-width="4" stroke-linecap="round" stroke-linejoin="round"/>
<path d="M24.5273 53.04V27.8987" stroke="#8AB809" stroke-width="4" stroke-linecap="round" stroke-linejoin="round"/>
</svg>
