<svg width="37" height="50" viewBox="0 0 37 50" fill="none" xmlns="http://www.w3.org/2000/svg">
<path d="M18.1558 7.2478C16.416 7.2478 14.7153 7.76371 13.2688 8.73027C11.8222 9.69684 10.6948 11.0707 10.029 12.678C9.36319 14.2853 9.18899 16.054 9.5284 17.7603C9.86781 19.4667 10.7056 21.0341 11.9358 22.2643C13.166 23.4945 14.7334 24.3323 16.4397 24.6717C18.1461 25.0111 19.9147 24.8369 21.5221 24.1711C23.1294 23.5053 24.5032 22.3779 25.4698 20.9313C26.4364 19.4847 26.9523 17.784 26.9523 16.0442C26.9523 13.7113 26.0255 11.4739 24.3758 9.82422C22.7262 8.17457 20.4888 7.2478 18.1558 7.2478ZM18.1558 21.7704C17.0233 21.7704 15.9162 21.4345 14.9746 20.8054C14.0329 20.1762 13.299 19.2819 12.8656 18.2355C12.4322 17.1892 12.3188 16.0379 12.5397 14.9271C12.7607 13.8164 13.306 12.7961 14.1068 11.9953C14.9076 11.1944 15.9279 10.6491 17.0387 10.4281C18.1495 10.2072 19.3008 10.3206 20.3471 10.754C21.3934 11.1874 22.2877 11.9213 22.9169 12.863C23.5461 13.8046 23.882 14.9117 23.882 16.0442C23.8779 17.5602 23.2728 19.0128 22.1994 20.0833C21.126 21.1538 19.6718 21.755 18.1558 21.755V21.7704Z" fill="#8AB809"/>
<path d="M18.1232 1.51968e-09C13.3415 0.00399382 8.75565 1.90004 5.36729 5.27402C1.97893 8.648 0.0633952 13.2257 0.0390625 18.0074C0.0390625 25.1765 4.06117 31.179 7.00867 35.5542L7.54597 36.3525C10.4785 40.6027 13.6245 44.7017 16.9718 48.6337L18.1385 50L19.3053 48.6337C22.6521 44.7014 25.7981 40.6024 28.7311 36.3525L29.2684 35.5388C32.2006 31.1636 36.2227 25.1765 36.2227 18.0074C36.1983 13.2231 34.2807 8.64302 30.889 5.26861C27.4973 1.89419 22.9076 -6.19528e-05 18.1232 1.51968e-09ZM26.7047 33.7734L26.152 34.587C23.5116 38.5477 20.0114 42.9843 18.1232 45.1796C16.3117 42.9843 12.7348 38.5477 10.0943 34.587L9.55702 33.7734C6.8398 29.7206 3.10937 24.1787 3.10937 17.946C3.10937 15.9743 3.49772 14.022 4.25223 12.2004C5.00675 10.3789 6.11266 8.72375 7.50682 7.32959C8.90098 5.93543 10.5561 4.82952 12.3776 4.075C14.1992 3.32049 16.1515 2.93215 18.1232 2.93215C20.0948 2.93215 22.0472 3.32049 23.8687 4.075C25.6903 4.82952 27.3454 5.93543 28.7396 7.32959C30.1337 8.72375 31.2396 10.3789 31.9941 12.2004C32.7487 14.022 33.137 15.9743 33.137 17.946C33.137 24.2401 29.4219 29.782 26.7047 33.7734Z" fill="#8AB809"/>
</svg>
