<svg width="54" height="54" viewBox="0 0 54 54" fill="none" xmlns="http://www.w3.org/2000/svg">
<path d="M51.7774 2.67746C51.7569 2.57874 51.7087 2.48791 51.6384 2.41567C51.5681 2.34343 51.4786 2.29277 51.3804 2.26966C44.8388 0.669746 29.7275 6.3705 21.5318 14.5601C20.0712 16.0088 18.7393 17.5818 17.5513 19.2612C15.0251 19.0327 12.4989 19.2252 10.3481 20.1635C4.27441 22.834 2.50729 29.8087 2.01408 32.8028C1.98736 32.9668 1.99877 33.1349 2.04744 33.2938C2.0961 33.4527 2.18071 33.5983 2.29471 33.7193C2.40871 33.8403 2.54903 33.9334 2.7048 33.9914C2.86057 34.0494 3.02761 34.0708 3.19297 34.0539L12.9452 32.9832C12.952 33.7188 12.9961 34.4535 13.0775 35.1846C13.1284 35.6899 13.3539 36.1617 13.7151 36.5187L17.4911 40.2947C17.8485 40.6562 18.3207 40.8817 18.8264 40.9323C19.5531 41.0133 20.2834 41.0575 21.0146 41.0646L19.9451 50.8085C19.9284 50.9736 19.9499 51.1404 20.008 51.2959C20.066 51.4514 20.159 51.5915 20.2798 51.7053C20.4006 51.8191 20.546 51.9037 20.7047 51.9524C20.8634 52.0011 21.0311 52.0126 21.195 51.9861C24.1903 51.505 31.1794 49.7378 33.8343 43.6654C34.7726 41.5121 34.9651 38.9992 34.7486 36.485C36.433 35.2981 38.0104 33.9662 39.4629 32.5045C47.6886 24.3244 53.3533 9.54507 51.7774 2.67746ZM32.1514 21.9077C31.4329 21.1894 30.9436 20.2742 30.7453 19.2777C30.547 18.2813 30.6487 17.2485 31.0374 16.3098C31.4261 15.3711 32.0845 14.5688 32.9292 14.0044C33.774 13.4399 34.7671 13.1386 35.7831 13.1386C36.7991 13.1386 37.7922 13.4399 38.6369 14.0044C39.4817 14.5688 40.14 15.3711 40.5288 16.3098C40.9175 17.2485 41.0192 18.2813 40.8209 19.2777C40.6226 20.2742 40.1332 21.1894 39.4148 21.9077C38.9382 22.3853 38.3721 22.7642 37.749 23.0227C37.1258 23.2812 36.4578 23.4143 35.7831 23.4143C35.1084 23.4143 34.4404 23.2812 33.8172 23.0227C33.194 22.7642 32.628 22.3853 32.1514 21.9077V21.9077Z" stroke="#8AB809" stroke-width="3" stroke-linecap="round" stroke-linejoin="round"/>
<path d="M9.37306 38.5483C8.17386 38.6955 7.05821 39.2392 6.2033 40.0929C4.0837 42.2197 3.88281 50.0966 3.88281 50.0966C3.88281 50.0966 11.7645 49.8957 13.8853 47.7737C14.7425 46.9202 15.2871 45.8027 15.4311 44.6016" stroke="#8AB809" stroke-width="3" stroke-linecap="round" stroke-linejoin="round"/>
</svg>
