<svg width="14" height="13" viewBox="0 0 14 13" fill="none" xmlns="http://www.w3.org/2000/svg">
<path d="M12.9351 4.72554L9.06099 4.17806L7.32917 0.764102C7.28187 0.670629 7.20405 0.594961 7.10792 0.548967C6.86684 0.43324 6.57388 0.529679 6.45334 0.764102L4.72152 4.17806L0.847437 4.72554C0.740628 4.74038 0.642975 4.78934 0.568209 4.86352C0.477822 4.95386 0.428014 5.0754 0.42973 5.20142C0.431447 5.32745 0.484548 5.44766 0.577364 5.53563L3.38032 8.19291L2.71811 11.9452C2.70258 12.0324 2.71251 12.1222 2.74678 12.2043C2.78105 12.2864 2.83828 12.3575 2.91199 12.4095C2.9857 12.4616 3.07293 12.4925 3.1638 12.4988C3.25467 12.5051 3.34553 12.4865 3.42609 12.4452L6.89126 10.6736L10.3564 12.4452C10.451 12.4941 10.5609 12.5104 10.6662 12.4926C10.9317 12.4481 11.1102 12.2033 11.0644 11.9452L10.4022 8.19291L13.2051 5.53563C13.2814 5.46293 13.3318 5.36798 13.3471 5.26412C13.3882 5.00447 13.2021 4.76412 12.9351 4.72554Z" fill="#D9D9D9"/>
</svg>
