<svg width="14" height="13" viewBox="0 0 14 13" fill="none" xmlns="http://www.w3.org/2000/svg">
<path d="M13.0132 4.72554L9.13912 4.17806L7.4073 0.764102C7.35999 0.670629 7.28218 0.594961 7.18605 0.548967C6.94497 0.43324 6.65201 0.529679 6.53147 0.764102L4.79965 4.17806L0.925562 4.72554C0.818753 4.74038 0.7211 4.78934 0.646334 4.86352C0.555947 4.95386 0.506139 5.0754 0.507855 5.20142C0.509572 5.32745 0.562673 5.44766 0.655489 5.53563L3.45844 8.19291L2.79623 11.9452C2.7807 12.0324 2.79064 12.1222 2.8249 12.2043C2.85917 12.2864 2.91641 12.3575 2.99012 12.4095C3.06383 12.4616 3.15106 12.4925 3.24193 12.4988C3.33279 12.5051 3.42366 12.4865 3.50422 12.4452L6.96938 10.6736L10.4345 12.4452C10.5291 12.4941 10.639 12.5104 10.7443 12.4926C11.0098 12.4481 11.1883 12.2033 11.1425 11.9452L10.4803 8.19291L13.2833 5.53563C13.3596 5.46293 13.4099 5.36798 13.4252 5.26412C13.4664 5.00447 13.2802 4.76412 13.0132 4.72554Z" fill="#8AB809"/>
</svg>
