<svg width="17" height="17" viewBox="0 0 17 17" fill="none" xmlns="http://www.w3.org/2000/svg">
<path d="M15.5516 13.5573C15.1677 12.6591 14.6106 11.8433 13.9113 11.1553C13.2141 10.4652 12.3882 9.91508 11.4793 9.53518C11.4711 9.53116 11.463 9.52915 11.4549 9.52513C12.7227 8.6206 13.547 7.14724 13.547 5.48492C13.547 2.73116 11.288 0.5 8.49983 0.5C5.71169 0.5 3.45269 2.73116 3.45269 5.48492C3.45269 7.14724 4.27692 8.6206 5.54481 9.52713C5.53667 9.53116 5.52853 9.53316 5.52039 9.53719C4.60864 9.91708 3.79052 10.4618 3.0884 11.1573C2.38975 11.8459 1.83272 12.6615 1.44807 13.5593C1.07019 14.4382 0.866394 15.3805 0.847707 16.3352C0.847164 16.3566 0.850974 16.378 0.858912 16.3979C0.866851 16.4179 0.878757 16.4361 0.89393 16.4515C0.909103 16.4669 0.927235 16.4791 0.947258 16.4874C0.967282 16.4957 0.988791 16.5 1.01052 16.5H2.2316C2.32115 16.5 2.39238 16.4296 2.39441 16.3432C2.43512 14.7915 3.06601 13.3382 4.18126 12.2367C5.33519 11.097 6.86765 10.4698 8.49983 10.4698C10.132 10.4698 11.6645 11.097 12.8184 12.2367C13.9337 13.3382 14.5645 14.7915 14.6052 16.3432C14.6073 16.4317 14.6785 16.5 14.7681 16.5H15.9891C16.0109 16.5 16.0324 16.4957 16.0524 16.4874C16.0724 16.4791 16.0906 16.4669 16.1057 16.4515C16.1209 16.4361 16.1328 16.4179 16.1407 16.3979C16.1487 16.378 16.1525 16.3566 16.152 16.3352C16.1316 15.3744 15.9301 14.4397 15.5516 13.5573ZM8.49983 8.94221C7.5657 8.94221 6.68652 8.58241 6.0251 7.92915C5.36368 7.27588 4.99939 6.40754 4.99939 5.48492C4.99939 4.56231 5.36368 3.69397 6.0251 3.0407C6.68652 2.38744 7.5657 2.02764 8.49983 2.02764C9.43396 2.02764 10.3131 2.38744 10.9746 3.0407C11.636 3.69397 12.0003 4.56231 12.0003 5.48492C12.0003 6.40754 11.636 7.27588 10.9746 7.92915C10.3131 8.58241 9.43396 8.94221 8.49983 8.94221Z" fill="black"/>
</svg>
