<svg width="78" height="60" viewBox="0 0 78 60" fill="none" xmlns="http://www.w3.org/2000/svg">
<path d="M63.5226 26.692C63.5226 26.692 64.5405 31.6741 64.7682 32.7187H60.2949C60.7369 31.5268 62.4378 26.8929 62.4378 26.8929C62.411 26.933 62.8798 25.6741 63.1476 24.8973L63.5226 26.692ZM77.7057 6.42857V53.5714C77.7057 57.1205 74.8263 60 71.2771 60H6.9911C3.44198 60 0.5625 57.1205 0.5625 53.5714V6.42857C0.5625 2.87946 3.44198 0 6.9911 0H71.2771C74.8263 0 77.7057 2.87946 77.7057 6.42857ZM20.9867 40.0714L29.451 19.2857H23.759L18.4956 33.4821L17.9197 30.6027L16.0447 21.0402C15.7367 19.7143 14.7858 19.3393 13.6072 19.2857H4.94199L4.84824 19.7009C6.96432 20.2366 8.85272 21.0134 10.5001 21.9911L15.2947 40.0714H20.9867ZM33.6296 40.0982L37.0047 19.2857H31.6207L28.2591 40.0982H33.6296ZM52.3663 33.2946C52.3931 30.9241 50.9467 29.1161 47.8529 27.6295C45.9645 26.6786 44.8127 26.0357 44.8127 25.058C44.8395 24.1741 45.7904 23.2634 47.9065 23.2634C49.661 23.2232 50.9467 23.6384 51.911 24.0536L52.3931 24.2812L53.1297 19.7812C52.0717 19.3661 50.3842 18.8973 48.3083 18.8973C42.9913 18.8973 39.2547 21.7366 39.2279 25.7812C39.1877 28.7679 41.9065 30.4286 43.9422 31.433C46.0181 32.4509 46.7279 33.1205 46.7279 34.0179C46.7011 35.4107 45.0404 36.0536 43.5002 36.0536C41.3573 36.0536 40.2056 35.7187 38.4511 34.942L37.7413 34.6071L36.9913 39.2812C38.2502 39.8571 40.5806 40.3661 42.9913 40.3929C48.6431 40.4062 52.3262 37.6071 52.3663 33.2946ZM71.2771 40.0982L66.9378 19.2857H62.7726C61.4869 19.2857 60.5092 19.6607 59.9601 21.0134L51.9645 40.0982H57.6164C57.6164 40.0982 58.5405 37.5268 58.7414 36.9777H65.6521C65.8128 37.7143 66.295 40.0982 66.295 40.0982H71.2771Z" fill="#F2F2F2"/>
</svg>
