<svg width="78" height="60" viewBox="0 0 78 60" fill="none" xmlns="http://www.w3.org/2000/svg">
<path d="M25.6581 30.2946C25.6581 31.9286 24.3589 33.1741 22.7116 33.1741C21.4795 33.1741 20.5687 32.4777 20.5687 31.1652C20.5687 29.5312 21.8411 28.2187 23.475 28.2187C24.7205 28.2187 25.6581 28.9821 25.6581 30.2946ZM11.4883 23.7991H10.8589C10.658 23.7991 10.4571 23.933 10.4303 24.1607L9.8544 27.7366L10.9526 27.6964C12.4258 27.6964 13.5642 27.4955 13.8321 25.7946C14.1401 24 13.0017 23.7991 11.4883 23.7991ZM49.5242 23.7991H48.9216C48.6805 23.7991 48.5198 23.933 48.493 24.1607L47.9305 27.7366L49.0019 27.6964C50.743 27.6964 51.9484 27.2946 51.9484 25.2857C51.935 23.8661 50.6626 23.7991 49.5242 23.7991ZM77.8503 6.42857V53.5714C77.8503 57.1205 74.9708 60 71.4217 60H7.13564C3.58651 60 0.707031 57.1205 0.707031 53.5714V6.42857C0.707031 2.87946 3.58651 0 7.13564 0H71.4217C74.9708 0 77.8503 2.87946 77.8503 6.42857ZM17.8902 24.5625C17.8902 21.75 15.7205 20.8125 13.2428 20.8125H7.88564C7.55082 20.8125 7.21599 21.0804 7.18921 21.442L4.99277 35.1161C4.95259 35.3839 5.15348 35.6518 5.42134 35.6518H7.966C8.32761 35.6518 8.66243 35.2634 8.70261 34.8884L9.30529 31.3259C9.43922 30.3616 11.0732 30.6964 11.716 30.6964C15.5464 30.6964 17.8902 28.4196 17.8902 24.5625ZM29.167 25.7411H26.6223C26.1134 25.7411 26.0866 26.4777 26.0598 26.8393C25.283 25.7009 24.158 25.5 22.8857 25.5C19.6045 25.5 17.1 28.3795 17.1 31.5536C17.1 34.1652 18.7339 35.8661 21.3455 35.8661C22.5509 35.8661 24.0509 35.2098 24.8947 34.2723C24.8277 34.4732 24.7607 34.9018 24.7607 35.1027C24.7607 35.4107 24.8947 35.6384 25.1893 35.6384H27.4929C27.8545 35.6384 28.1625 35.25 28.2295 34.875L29.5956 26.2634C29.6357 26.0089 29.4349 25.7411 29.167 25.7411ZM34.5911 38.8527L43.1224 26.4509C43.1894 26.3839 43.1894 26.317 43.1894 26.2232C43.1894 25.9955 42.9885 25.7545 42.7608 25.7545H40.1894C39.9617 25.7545 39.7206 25.8884 39.5867 26.0893L36.0376 31.3125L34.5643 26.2902C34.4572 25.9955 34.1626 25.7545 33.8277 25.7545H31.3233C31.0956 25.7545 30.8947 25.9955 30.8947 26.2232C30.8947 26.3839 33.5063 33.8304 33.734 34.5402C33.3724 35.0491 30.9884 38.3705 30.9884 38.7723C30.9884 39.0134 31.1893 39.2009 31.417 39.2009H33.9884C34.2295 39.1875 34.4572 39.0536 34.5911 38.8527ZM55.9261 24.5625C55.9261 21.75 53.7564 20.8125 51.2787 20.8125H45.9617C45.6001 20.8125 45.2653 21.0804 45.2251 21.442L43.0555 35.1027C43.0287 35.3705 43.2296 35.6384 43.484 35.6384H46.2296C46.4974 35.6384 46.6983 35.4375 46.7653 35.2098L47.368 31.3259C47.5019 30.3616 49.1358 30.6964 49.7787 30.6964C53.5823 30.6964 55.9261 28.4196 55.9261 24.5625ZM67.2029 25.7411H64.6582C64.1493 25.7411 64.1225 26.4777 64.0824 26.8393C63.3457 25.7009 62.2073 25.5 60.9082 25.5C57.627 25.5 55.1225 28.3795 55.1225 31.5536C55.1225 34.1652 56.7564 35.8661 59.368 35.8661C60.6136 35.8661 62.1136 35.2098 62.9172 34.2723C62.877 34.4732 62.7832 34.9018 62.7832 35.1027C62.7832 35.4107 62.9172 35.6384 63.2118 35.6384H65.5288C65.8904 35.6384 66.1984 35.25 66.2654 34.875L67.6315 26.2634C67.6717 26.0089 67.4708 25.7411 67.2029 25.7411ZM73.5645 21.2812C73.5645 21.0134 73.3636 20.8125 73.136 20.8125H70.6583C70.4574 20.8125 70.2565 20.9732 70.2297 21.1741L68.0601 35.1027L68.0199 35.1696C68.0199 35.4107 68.2208 35.6384 68.4886 35.6384H70.6985C71.0333 35.6384 71.3681 35.25 71.3949 34.875L73.5645 21.3214V21.2812ZM61.5109 28.2187C59.877 28.2187 58.6046 29.5179 58.6046 31.1652C58.6046 32.4643 59.5422 33.1741 60.7743 33.1741C62.3815 33.1741 63.6806 31.942 63.6806 30.2946C63.694 28.9821 62.7565 28.2187 61.5109 28.2187Z" fill="#F2F2F2"/>
</svg>
