<svg width="105" height="35" viewBox="0 0 105 35" fill="none" xmlns="http://www.w3.org/2000/svg">
<path d="M88.0731 14.9686C87.5882 14.9644 87.1077 15.0609 86.6615 15.2519C86.2153 15.4429 85.813 15.7243 85.4798 16.0787C85.1465 16.4331 84.8894 16.8528 84.7245 17.3115C84.5597 17.7703 84.4905 18.2583 84.5215 18.7452C84.504 19.2337 84.584 19.7208 84.7566 20.1777C84.9293 20.6346 85.1911 21.0521 85.5266 21.4056C85.8622 21.7591 86.2647 22.0415 86.7105 22.236C87.1562 22.4305 87.6362 22.5333 88.122 22.5382C88.6078 22.5406 89.0889 22.4424 89.5354 22.2497C89.9818 22.057 90.3841 21.774 90.7172 21.4183C91.0503 21.0625 91.3071 20.6416 91.4717 20.1818C91.6362 19.7219 91.705 19.2329 91.6736 18.7452C91.6893 18.2579 91.608 17.7724 91.4345 17.3172C91.2611 16.862 90.9989 16.4463 90.6635 16.0944C90.3281 15.7426 89.9261 15.4618 89.4813 15.2684C89.0364 15.0751 88.5577 14.9732 88.0731 14.9686ZM59.7579 14.9686C59.274 14.9647 58.7945 15.0615 58.3495 15.2529C57.9045 15.4443 57.5036 15.7261 57.172 16.0807C56.8403 16.4353 56.5851 16.855 56.4223 17.3135C56.2595 17.772 56.1926 18.2595 56.2259 18.7452C56.2071 19.234 56.2861 19.7217 56.4583 20.1792C56.6304 20.6367 56.8922 21.0548 57.228 21.4086C57.5638 21.7624 57.9669 22.0447 58.4133 22.2387C58.8596 22.4328 59.3402 22.5346 59.8264 22.5382C60.3114 22.5408 60.7917 22.4425 61.2372 22.2497C61.6827 22.0568 62.0838 21.7734 62.4154 21.4174C62.747 21.0613 63.0019 20.6401 63.1642 20.1803C63.3265 19.7205 63.3926 19.2319 63.3585 18.7452C63.3755 18.2576 63.2952 17.7715 63.1222 17.3157C62.9492 16.8599 62.6871 16.4436 62.3514 16.0915C62.0157 15.7394 61.6132 15.4586 61.1677 15.2657C60.7223 15.0728 60.2429 14.9718 59.7579 14.9686ZM29.2838 14.7291C28.7385 14.7122 28.1971 14.8256 27.7039 15.0601C27.2107 15.2945 26.7797 15.6432 26.4464 16.0776C25.7843 17.0066 25.5157 18.1619 25.6995 19.2899L32.1212 16.6223C31.8862 16.0603 31.4917 15.5806 30.9869 15.2433C30.4822 14.9059 29.8897 14.7259 29.2838 14.7258V14.7291ZM0 0V35H104.364V0H0ZM21.7761 25.4978H9.68299V7.99944H13.4205V22.0985H21.7794L21.7761 25.4978ZM29.6751 22.7777C31.084 22.7941 32.4603 22.2987 33.5138 21.3406L35.8424 23.1354C34.1854 24.79 31.9446 25.7172 29.6099 25.7144C28.6644 25.8074 27.7099 25.704 26.8057 25.4106C25.9015 25.1172 25.0668 24.6401 24.3534 24.0089C23.64 23.3776 23.0632 22.6056 22.6585 21.7408C22.2539 20.876 22.0301 19.9368 22.0012 18.9814C21.974 18.024 22.1428 17.0711 22.4972 16.1821C22.8516 15.293 23.3839 14.4868 24.0611 13.8135C24.7383 13.1402 25.5459 12.6143 26.4337 12.2683C27.3215 11.9223 28.2705 11.7637 29.2218 11.8023C30.2081 11.7547 31.1928 11.9261 32.1059 12.3043C33.019 12.6825 33.8382 13.2583 34.5052 13.9908C35.389 15.067 35.95 16.3664 36.1196 17.751L26.7106 21.6982C27.5096 22.4332 28.5793 22.8269 29.6817 22.7744L29.6751 22.7777ZM50.9066 25.4978H47.2213V17.8232C47.2067 17.4315 47.1148 17.0467 46.9508 16.6912C46.7869 16.3356 46.5543 16.0165 46.2665 15.7523C45.9788 15.4881 45.6416 15.2842 45.2747 15.1525C44.9078 15.0208 44.5185 14.9638 44.1295 14.985C43.7426 14.9614 43.3549 15.0171 42.9899 15.1486C42.625 15.28 42.2903 15.4846 42.0062 15.7499C41.7221 16.0152 41.4944 16.3357 41.3369 16.6921C41.1794 17.0484 41.0954 17.4332 41.0899 17.8232V25.4978H37.4209V12.0156H41.1062V13.9482C41.6228 13.283 42.2821 12.7439 43.035 12.3712C43.7878 11.9984 44.6146 11.8017 45.4536 11.7957C46.1677 11.7557 46.8823 11.8657 47.5519 12.1187C48.2215 12.3717 48.8314 12.7621 49.3428 13.2652C49.8542 13.7683 50.2559 14.373 50.5223 15.0408C50.7887 15.7085 50.914 16.4248 50.8903 17.144L50.9066 25.4978ZM59.5362 25.7176C53.4374 25.4617 50.6196 17.9774 55.0355 13.7218C59.4351 9.48252 66.7568 12.6094 66.7568 18.7452C66.7536 19.6847 66.5624 20.614 66.1946 21.4776C65.8269 22.3413 65.2902 23.1216 64.6165 23.7722C63.9427 24.4228 63.1457 24.9303 62.2729 25.2646C61.4001 25.5988 60.4694 25.7529 59.5362 25.7176ZM71.6978 25.4781L66.1926 12.0123H70.3867L73.7166 21.2061L77.0464 12.0123H81.2405L75.7191 25.4781H71.6978ZM87.835 25.7176C81.7526 25.4617 78.9348 17.9774 83.3343 13.7218C87.7502 9.48252 95.0557 12.6094 95.0557 18.7452C95.0538 19.6851 94.8635 20.615 94.4962 21.4793C94.129 22.3436 93.5923 23.1245 92.9183 23.7753C92.2442 24.4262 91.4467 24.9337 90.5733 25.2674C89.6999 25.6011 88.7686 25.7542 87.835 25.7176ZM96.5331 23.89H95.9199V25.4978H95.5645V23.89H94.9709V23.5488H96.5331V23.89ZM98.8943 25.4978H98.5388V24.1132L97.9452 25.0516H97.8931L97.2995 24.1132V25.4978H96.944V23.5488H97.3354L97.9126 24.4708L98.4899 23.5488H98.8813L98.8943 25.4978Z" fill="#F2F2F2"/>
</svg>
