<svg width="121" height="19" viewBox="0 0 121 19" fill="none" xmlns="http://www.w3.org/2000/svg">
<path d="M0.896549 18.3346V14.7105C2.95294 15.3571 4.77249 15.688 6.35895 15.688C8.55068 15.688 9.62587 15.1015 9.62587 13.9474C9.63382 13.7437 9.59569 13.541 9.51432 13.3541C9.43295 13.1673 9.31045 13.0013 9.15595 12.8684C8.84392 12.5526 8.00181 12.1203 6.64843 11.5752C4.26121 10.579 2.67474 9.73684 1.95294 9.03008C1.48917 8.57775 1.12311 8.03511 0.877391 7.43569C0.631674 6.83627 0.511524 6.19281 0.524369 5.54511C0.524369 3.74436 1.22738 2.35338 2.59956 1.41353C3.94918 0.469923 5.75369 0 7.92286 0C9.13715 0 10.8815 0.214286 13.171 0.665414V4.13534C11.6703 3.50236 10.0626 3.16168 8.43414 3.13158C6.37775 3.13158 5.36271 3.68421 5.36271 4.81579C5.36271 5.24812 5.5582 5.58271 5.99053 5.85338C6.32136 6.06767 7.25745 6.5188 8.80632 7.22556C11.0356 8.20301 12.5244 9.06391 13.2725 9.80827C14.171 10.6917 14.6409 11.9248 14.5996 13.1767C14.6597 15.0564 13.6635 16.8196 12.0168 17.7218C10.6033 18.5639 8.80256 18.9962 6.57324 18.9962C4.6601 18.9999 2.75329 18.7765 0.89279 18.3308L0.896549 18.3346ZM17.483 0.319549H22.592V18.6241H17.483V0.319549ZM27.2725 18.6278V0.323306H40.389V3.63158H32.2048V7.78196H39.3326V10.8008H32.2048V15.1278H40.6071V18.6316L27.2725 18.6278ZM43.9529 18.6278V0.323306H50.5695L55.171 12.0338L59.889 0.323306H66.1935V18.6278H61.3401V5.66541L55.9717 18.8045H52.7988L47.5544 5.66541V18.6278H43.9304H43.9529ZM70.874 18.6278V0.323306H83.9717V3.63158H75.8063V7.78196H82.9153V10.8008H75.8063V15.1278H84.2085V18.6316L70.874 18.6278ZM87.577 18.6278V0.323306H93.4905L99.7725 12.579V0.342104H103.378V18.6278H97.6033L91.1634 6.21805V18.6278H87.577ZM107.002 18.3346V14.7105C109.036 15.3571 110.855 15.688 112.464 15.688C114.656 15.688 115.731 15.1015 115.731 13.9474C115.738 13.7456 115.702 13.5447 115.624 13.3585C115.546 13.1722 115.429 13.0051 115.28 12.8684C114.949 12.5526 114.107 12.1203 112.754 11.5752C110.366 10.5977 108.78 9.75564 108.058 9.03008C107.59 8.57696 107.222 8.0315 106.976 7.42833C106.73 6.82516 106.612 6.17746 106.63 5.52632C106.63 3.72557 107.31 2.35338 108.705 1.41729C110.054 0.473684 111.836 0.00375733 114.009 0.00375733C115.261 0.00375733 116.851 0.203008 118.806 0.593985L119.257 0.669171V4.1391C117.757 3.50426 116.149 3.16349 114.521 3.13534C112.487 3.13534 111.449 3.68797 111.449 4.81955C111.449 5.25188 111.663 5.58647 112.077 5.85714C112.408 6.05263 113.351 6.52256 114.934 7.22933C117.145 8.20677 118.633 9.06767 119.381 9.81203C120.28 10.6955 120.75 11.9286 120.69 13.1805C120.69 15.1805 119.848 16.688 118.148 17.7256C116.716 18.5677 114.915 19 112.686 19C110.774 18.9914 108.868 18.7682 107.006 18.3346H107.002Z" fill="#F2F2F2"/>
</svg>
