<svg width="125" height="19" viewBox="0 0 125 19" fill="none" xmlns="http://www.w3.org/2000/svg">
<path d="M103.109 0.591078L103.354 14.5475H103.234L99.1819 0.591078H92.5401V18.1717H96.9343L96.6893 3.72923H96.8099L101.146 18.1717H107.504V0.591078H103.109ZM19.3827 0.591078L16.0618 18.3545H20.8604L23.3103 2.19321H23.4114L25.8029 18.3545H30.5626L27.2806 0.591078H19.3827ZM46.2378 0.591078L44.0485 14.1392H43.928L41.7192 0.591078H34.4668L34.1207 18.3545H38.5772L38.6977 2.37597H38.7366L41.7153 18.3545H46.23L49.2088 2.37597H49.3293L49.4499 18.3545H53.9063L53.4824 0.591078H46.2378ZM8.56447 13.3109C8.74723 13.7153 8.68502 14.3219 8.62669 14.6058C8.50614 15.2124 8.07838 15.7996 6.90401 15.7996C5.76852 15.7996 5.123 15.1502 5.123 14.2014V12.4787H0.363281V13.8359C0.363281 17.8256 3.50143 19 6.84568 19C10.046 19 12.7176 17.8878 13.1453 14.9713C13.3903 13.4314 13.2075 12.4204 13.1453 12.0549C12.3131 8.30618 5.53131 7.25624 5.06467 5.16803C5.00192 4.85356 5.00192 4.52979 5.06467 4.21531C5.18522 3.62812 5.58964 3.02149 6.66291 3.02149C7.73618 3.02149 8.32337 3.6709 8.32337 4.61973V5.693H12.7798V4.45641C12.7798 0.587188 9.27609 0 6.78346 0C3.62198 0 1.01269 1.05383 0.546048 3.90811C0.385216 4.69969 0.406492 5.51748 0.608267 6.29963C1.316 9.96664 7.67785 11.0399 8.56836 13.307L8.56447 13.3109ZM66.3889 13.3109C66.5716 13.7153 66.5094 14.2636 66.4511 14.6058C66.3305 15.2124 65.9028 15.7996 64.7284 15.7996C63.5929 15.7996 62.9474 15.1502 62.9474 14.2014V12.4787H58.1877V13.8359C58.1877 17.7634 61.2675 18.9611 64.6078 18.9611C67.8082 18.9611 70.4214 17.8878 70.8453 14.9091C71.0902 13.3692 70.9075 12.4165 70.8453 11.9926C70.1375 8.30618 63.414 7.19403 62.9474 5.16803C62.8846 4.85356 62.8846 4.52979 62.9474 4.21531C63.0485 3.62812 63.4724 3.02149 64.5456 3.02149C65.5567 3.02149 66.2061 3.6709 66.2061 4.61973V5.693H70.6003V4.45641C70.6003 0.587188 67.1588 0 64.6662 0C61.5047 0 58.9537 0.991609 58.4871 3.90811C58.3666 4.67806 58.3666 5.40524 58.526 6.29963C59.2571 9.96664 65.4945 10.9777 66.385 13.307L66.3889 13.3109ZM81.3563 15.683C82.6124 15.683 82.9546 14.8508 83.079 14.3881C83.1412 14.2053 83.1412 13.902 83.1412 13.7192V0.594965H87.6559V13.3731C87.6559 13.7192 87.6559 14.3842 87.5937 14.5475C87.3099 17.8878 84.6772 18.9611 81.4146 18.9611C78.1521 18.9611 75.5428 17.8878 75.2356 14.5475C75.2356 14.3842 75.1733 13.7153 75.1733 13.3731V0.594965H79.6881V13.7192C79.6881 13.9642 79.6881 14.2053 79.7503 14.3881C79.7503 14.8547 80.1158 15.683 81.3485 15.683H81.3563ZM118.442 15.5002C119.761 15.5002 120.165 14.668 120.286 14.2053C120.348 14.0225 120.348 13.7192 120.348 13.5559V10.9855H118.505V8.37229H124.804V13.132C124.804 13.4975 124.804 13.7192 124.742 14.3258C124.439 17.5884 121.643 18.72 118.505 18.72C115.343 18.72 112.571 17.5845 112.267 14.3258C112.205 13.7192 112.205 13.4937 112.205 13.132V5.63856C112.205 5.35469 112.267 4.74806 112.267 4.46419C112.672 1.12383 115.347 0.0505545 118.505 0.0505545C121.643 0.0505545 124.377 1.12383 124.742 4.46419C124.804 4.98916 124.804 5.63856 124.804 5.63856V6.24519H120.348V5.23414C120.348 5.23414 120.348 4.81027 120.286 4.56529C120.223 4.16087 119.862 3.27037 118.505 3.27037C117.186 3.27037 116.844 4.10254 116.724 4.56529C116.661 4.81027 116.661 5.11359 116.661 5.41691V13.5598C116.661 13.7814 116.661 14.0264 116.724 14.2092C116.724 14.6758 117.19 15.5041 118.446 15.5041L118.442 15.5002Z" fill="#F2F2F2"/>
</svg>
