<svg width="78" height="60" viewBox="0 0 78 60" fill="none" xmlns="http://www.w3.org/2000/svg">
<path d="M41.3217 25.0968C41.3217 27.4014 39.9164 28.7272 37.4383 28.7272H34.1839V21.4689H37.4527C39.9164 21.4689 41.3217 22.7802 41.3217 25.0968ZM47.6833 33.4809C47.6833 34.5922 48.6476 35.3154 50.1614 35.3154C52.0899 35.3154 53.5363 34.098 53.5363 32.3817V31.3499L50.388 31.55C48.6066 31.6705 47.6833 32.3262 47.6833 33.4785V33.4809ZM77.9895 6.42909V53.5709C77.9888 55.2758 77.3113 56.9107 76.1057 58.1163C74.9002 59.3218 73.2653 59.9994 71.5604 60H7.27674C5.57184 59.9994 3.93695 59.3218 2.7314 58.1163C1.52585 56.9107 0.848295 55.2758 0.847656 53.5709V6.42909C0.848295 4.72418 1.52585 3.08929 2.7314 1.88374C3.93695 0.678192 5.57184 0.0006389 7.27674 0H71.5604C73.2653 0.0006389 74.9002 0.678192 76.1057 1.88374C77.3113 3.08929 77.9888 4.72418 77.9895 6.42909ZM17.9654 22.2571C19.0911 22.3511 20.2145 21.6955 20.9256 20.8638C21.6223 20.0056 22.0779 18.8558 21.9573 17.689C20.9666 17.73 19.7348 18.3447 19.0236 19.2029C18.38 19.9405 17.8328 21.1314 17.9654 22.2571ZM26.0819 32.2346C26.0554 32.2081 23.4567 31.2174 23.4302 28.2162C23.4037 25.7115 25.4792 24.5062 25.5732 24.4387C24.3945 22.6983 22.572 22.5102 21.9429 22.4693C20.3085 22.3753 18.9152 23.3925 18.1389 23.3925C17.3483 23.3925 16.1695 22.5078 14.8846 22.5368C14.0458 22.5591 13.2274 22.8007 12.5109 23.2376C11.7945 23.6744 11.205 24.2914 10.8011 25.0269C9.04613 28.0546 10.3454 32.5263 12.0473 34.99C12.8766 36.2073 13.8818 37.5476 15.1956 37.4946C16.4395 37.4415 16.936 36.6918 18.4354 36.6918C19.9493 36.6918 20.3784 37.4946 21.6898 37.4825C23.0566 37.456 23.9003 36.2652 24.744 35.0454C25.6673 33.6521 26.0554 32.3142 26.0843 32.2322L26.0819 32.2346ZM44.2145 25.0848C44.2145 21.5219 41.7364 19.0848 38.2 19.0848H31.3442V37.3524H34.1839V31.1113H38.1084C41.6978 31.1113 44.2145 28.6476 44.2145 25.0848ZM56.2675 28.2571C56.2675 25.6199 54.151 23.918 50.9111 23.918C47.8979 23.918 45.6753 25.6464 45.5933 28.0016H48.151C48.3655 26.8759 49.4093 26.1406 50.8292 26.1406C52.5696 26.1406 53.5339 26.9433 53.5339 28.4452V29.4504L49.9975 29.6649C46.7022 29.865 44.9232 31.2198 44.9232 33.5629C44.9232 35.9325 46.7577 37.4994 49.3949 37.4994C51.1763 37.4994 52.8227 36.6027 53.5724 35.1683H53.6255V37.3644H56.2506V28.2571H56.2675ZM69.9549 24.0916H67.0767L63.7428 34.8863H63.6898L60.3559 24.0916H57.3691L62.1759 37.3909L61.9228 38.1936C61.4937 39.5605 60.785 40.0956 59.5266 40.0956C59.2491 40.0905 58.9717 40.0768 58.695 40.0546V42.2507C58.8565 42.3037 59.5652 42.3182 59.7798 42.3182C62.552 42.3182 63.8513 41.2599 64.9891 38.0587L69.9549 24.0916Z" fill="#F2F2F2"/>
</svg>
