<svg width="126" height="19" viewBox="0 0 126 19" fill="none" xmlns="http://www.w3.org/2000/svg">
<path d="M27.7048 0.0038953C22.1626 0.0038953 19.5046 0.978255 19.1187 5.97087C19.0369 7.1479 18.9979 8.32492 19.0174 9.50195C19.0174 10.64 19.0369 11.8365 19.1187 13.033C19.5046 18.0256 22.1626 19 27.6853 19C33.2275 19 35.905 18.0256 36.2714 13.033C36.3727 11.8365 36.3922 10.6361 36.3922 9.50195C36.3922 8.36779 36.3727 7.16738 36.2714 5.97087C35.905 0.978255 33.2275 0.0038953 27.7048 0.0038953ZM47.3946 0.0038953C45.2627 0.0038953 43.1308 0.206563 42.2773 0.631383C40.5936 1.44205 39.4361 2.59959 39.4361 5.928C39.4361 7.87672 39.9622 9.33826 40.96 10.0671C42.4215 11.1623 43.8441 11.2636 47.761 11.4663C49.3628 11.5481 50.2164 11.8716 50.2164 13.2318C50.2164 14.9584 48.6925 14.9584 47.2738 14.9584C45.8318 14.9584 45.3875 14.8375 44.9003 14.4517C44.4521 14.1282 44.3507 13.5397 44.3507 12.6433H39.3971C39.3971 15.1805 39.4595 17.25 41.8525 18.2868C43.9844 19.2222 50.5204 19.2222 52.4886 18.3491C54.1957 17.5969 55.4117 16.6031 55.4117 13.1928C55.4117 10.8388 54.944 9.37723 53.1161 8.30154C51.8377 7.52985 48.2053 7.42851 46.3774 7.30769C45.0367 7.22585 44.53 6.73867 44.53 5.54215C44.53 3.99877 46.011 3.95979 47.2894 3.95979C48.3261 3.95979 49.0549 4.04164 49.5616 4.48595C49.7643 4.68862 50.0098 5.0121 50.0293 6.08779H54.9401C54.9401 3.97538 54.8582 1.68369 52.586 0.627484C51.674 0.222151 49.5226 0 47.3907 0L47.3946 0.0038953ZM58.8648 0.327383V18.6765H64.0211V11.591H70.0309V18.6765H75.2067V0.327383H70.0309V7.02707H64.0211V0.327383H58.8648ZM79.7511 0.327383V18.6765H84.9698V0.327383H79.7511ZM89.5961 0.327383V18.6765H99.402C103.907 18.6765 105.431 16.7278 105.431 13.7229C105.431 11.6533 104.944 9.80595 102.083 9.09272C104.399 8.48472 105.069 7.10502 105.069 5.11343C105.069 1.09518 102.551 0.323488 98.9382 0.323488L89.5961 0.327383ZM112.31 0.327383L106.768 18.6765H112.147L113.121 15.2663H119.15L120.144 18.6765H125.523L119.961 0.327383H112.31ZM0.808585 0.327383V4.91467H6.28838V18.6765H11.7682V4.91467H17.248V0.346871H0.804688L0.808585 0.327383ZM27.7048 4.28328C29.8757 4.28328 30.9942 4.63015 31.1345 7.4519C31.154 7.9001 31.1735 8.48861 31.1735 9.50195C31.1735 10.5153 31.154 11.1038 31.1345 11.552C30.9942 14.3737 29.8757 14.7206 27.7048 14.7206C25.5339 14.7206 24.3959 14.3737 24.275 11.552C24.2309 10.8696 24.2179 10.1855 24.2361 9.50195C24.2361 8.48861 24.2361 7.9001 24.275 7.4519C24.3959 4.63015 25.5339 4.28328 27.7048 4.28328ZM94.7524 4.52882H98.3458C99.2812 4.52882 99.8697 4.97702 99.8697 6.05272C99.8697 6.96472 99.2812 7.51425 98.3458 7.51425H94.7524V4.52882ZM116.13 4.85231H116.149L117.997 11.2051H114.302L116.13 4.85231ZM94.7719 11.1272H98.3458C99.8073 11.1272 100.092 11.7781 100.092 12.8109C100.092 13.8437 99.5228 14.4751 98.3458 14.4751H94.7524V11.1272H94.7719Z" fill="#F2F2F2"/>
</svg>
