<svg width="79" height="60" viewBox="0 0 79 60" fill="none" xmlns="http://www.w3.org/2000/svg">
<path d="M65.6666 50.5312C65.6666 51.442 65.0506 52.0982 64.1666 52.0982C63.2559 52.0982 62.6666 51.4018 62.6666 50.5312C62.6666 49.6607 63.2559 48.9643 64.1666 48.9643C65.0506 48.9643 65.6666 49.6607 65.6666 50.5312ZM24.0414 48.9643C23.0905 48.9643 22.5414 49.6607 22.5414 50.5312C22.5414 51.4018 23.0905 52.0982 24.0414 52.0982C24.912 52.0982 25.5012 51.442 25.5012 50.5312C25.4878 49.6607 24.912 48.9643 24.0414 48.9643ZM39.7781 48.9241C39.0549 48.9241 38.6129 49.3929 38.5058 50.0893H41.0638C40.9433 49.3259 40.4745 48.9241 39.7781 48.9241ZM54.2157 48.9643C53.305 48.9643 52.7558 49.6607 52.7558 50.5312C52.7558 51.4018 53.305 52.0982 54.2157 52.0982C55.1264 52.0982 55.7157 51.442 55.7157 50.5312C55.7157 49.6607 55.1264 48.9643 54.2157 48.9643ZM68.3988 52.4598C68.3988 52.5 68.439 52.5268 68.439 52.6071C68.439 52.6473 68.3988 52.6741 68.3988 52.7545C68.3586 52.7946 68.3586 52.8214 68.3318 52.8616C68.2916 52.9018 68.2649 52.9286 68.1845 52.9286C68.1443 52.9688 68.1175 52.9688 68.0372 52.9688C67.997 52.9688 67.9702 52.9688 67.8898 52.9286C67.8497 52.9286 67.8229 52.8884 67.7827 52.8616C67.7425 52.8214 67.7157 52.7946 67.7157 52.7545C67.6756 52.6875 67.6756 52.6473 67.6756 52.6071C67.6756 52.5402 67.6756 52.5 67.7157 52.4598C67.7157 52.3929 67.7559 52.3527 67.7827 52.3125C67.8229 52.2723 67.8497 52.2723 67.8898 52.2455C67.9568 52.2054 67.997 52.2054 68.0372 52.2054C68.1041 52.2054 68.1443 52.2054 68.1845 52.2455C68.2515 52.2857 68.2916 52.2857 68.3318 52.3125C68.372 52.3393 68.3586 52.3929 68.3988 52.4598ZM68.1041 52.6473C68.1711 52.6473 68.1711 52.6071 68.2113 52.6071C68.2515 52.567 68.2515 52.5402 68.2515 52.5C68.2515 52.4598 68.2515 52.433 68.2113 52.3929C68.1711 52.3929 68.1443 52.3527 68.064 52.3527H67.8497V52.8214H67.9568V52.6339H67.997L68.1443 52.8214H68.2515L68.1041 52.6473ZM78.1354 6.42857V53.5714C78.1354 57.1205 75.256 60 71.7068 60H7.42079C3.87167 60 0.992188 57.1205 0.992188 53.5714V6.42857C0.992188 2.87946 3.87167 0 7.42079 0H71.7068C75.256 0 78.1354 2.87946 78.1354 6.42857ZM9.56366 25.125C9.56366 35.3705 17.8807 43.6741 28.1129 43.6741C31.7557 43.6741 35.3316 42.5759 38.3584 40.5804C28.595 32.6384 28.662 17.6518 38.3584 9.70982C35.3316 7.70089 31.7557 6.61607 28.1129 6.61607C17.8807 6.60268 9.56366 14.9196 9.56366 25.125ZM39.5638 39.6964C49.0058 32.3304 48.9656 17.9732 39.5638 10.567C30.162 17.9732 30.1218 32.3437 39.5638 39.6964ZM20.5057 49.9152C20.5057 48.75 19.7423 47.9866 18.5369 47.9464C17.9208 47.9464 17.2646 48.1339 16.8226 48.817C16.5012 48.2679 15.9521 47.9464 15.1887 47.9464C14.6798 47.9464 14.1708 48.1339 13.769 48.6696V48.0804H12.6708V52.9955H13.769C13.769 50.4643 13.4342 48.9509 14.9744 48.9509C16.3405 48.9509 16.0726 50.317 16.0726 52.9955H17.1307C17.1307 50.5446 16.7958 48.9509 18.336 48.9509C19.7021 48.9509 19.4342 50.2902 19.4342 52.9955H20.5325V49.9152H20.5057ZM26.5191 48.0804H25.4611V48.6696C25.0995 48.2277 24.5905 47.9464 23.8941 47.9464C22.5146 47.9464 21.4566 49.0446 21.4566 50.5312C21.4566 52.0312 22.5146 53.1161 23.8941 53.1161C24.5905 53.1161 25.0995 52.8616 25.4611 52.3929V53.0089H26.5191V48.0804ZM31.9432 51.5089C31.9432 49.5 28.8763 50.4107 28.8763 49.4732C28.8763 48.7098 30.47 48.8304 31.3539 49.3259L31.7959 48.4554C30.537 47.6384 27.7513 47.6518 27.7513 49.5536C27.7513 51.4688 30.8182 50.6652 30.8182 51.5625C30.8182 52.4062 29.0102 52.3393 28.0459 51.6696L27.5771 52.5134C29.0772 53.5312 31.9432 53.317 31.9432 51.5089ZM36.6843 52.7545L36.3897 51.8438C35.8808 52.125 34.7558 52.433 34.7558 51.2946V49.0714H36.5102V48.0804H34.7558V46.5804H33.6575V48.0804H32.6397V49.058H33.6575V51.2946C33.6575 53.6518 35.9745 53.2232 36.6843 52.7545ZM38.4656 50.9598H42.1486C42.1486 48.7902 41.1576 47.933 39.8183 47.933C38.3986 47.933 37.3808 48.9911 37.3808 50.5179C37.3808 53.2634 40.4076 53.7187 41.9076 52.4196L41.3986 51.6161C40.354 52.4732 38.7736 52.3929 38.4656 50.9598ZM46.3808 48.0804C45.7647 47.8125 44.8272 47.8393 44.3451 48.6696V48.0804H43.2469V52.9955H44.3451V50.2232C44.3451 48.6696 45.6174 48.8705 46.0594 49.0982L46.3808 48.0804ZM47.8005 50.5312C47.8005 49.0045 49.354 48.5089 50.5728 49.4062L51.0817 48.5357C49.5281 47.317 46.7022 47.9866 46.7022 50.5446C46.7022 53.1964 49.7023 53.7321 51.0817 52.5536L50.5728 51.683C49.3406 52.5536 47.8005 52.0312 47.8005 50.5312ZM56.7335 48.0804H55.6353V48.6696C54.5237 47.1964 51.6308 48.0268 51.6308 50.5312C51.6308 53.1027 54.6309 53.8393 55.6353 52.3929V53.0089H56.7335V48.0804ZM61.247 48.0804C60.9255 47.9196 59.7737 47.692 59.2112 48.6696V48.0804H58.1532V52.9955H59.2112V50.2232C59.2112 48.75 60.4166 48.8438 60.9255 49.0982L61.247 48.0804ZM66.6443 46.0848H65.5863V48.6696C64.488 47.2098 61.5818 47.9866 61.5818 50.5312C61.5818 53.1295 64.5952 53.8259 65.5863 52.3929V53.0089H66.6443V46.0848ZM67.6622 36.0268V36.6429H67.7693V36.0268H68.0238V35.9196H67.4077V36.0268H67.6622ZM68.5461 52.6071C68.5461 52.5402 68.5461 52.4598 68.5059 52.3929C68.4657 52.3527 68.439 52.2857 68.3988 52.2455C68.3586 52.2054 68.2916 52.1786 68.2515 52.1384C68.1845 52.1384 68.1041 52.0982 68.0372 52.0982C67.997 52.0982 67.93 52.1384 67.8497 52.1384C67.7827 52.1786 67.7425 52.2054 67.7023 52.2455C67.6354 52.2857 67.5952 52.3527 67.5952 52.3929C67.555 52.4598 67.555 52.5402 67.555 52.6071C67.555 52.6473 67.555 52.7143 67.5952 52.7946C67.5952 52.8348 67.6354 52.9018 67.7023 52.942C67.7425 52.9821 67.7693 53.0089 67.8497 53.0491C67.9166 53.0893 67.997 53.0893 68.0372 53.0893C68.1041 53.0893 68.1845 53.0893 68.2515 53.0491C68.2916 53.0089 68.3586 52.9821 68.3988 52.942C68.439 52.9018 68.4657 52.8348 68.5059 52.7946C68.5461 52.7143 68.5461 52.6473 68.5461 52.6071ZM68.9747 35.9062H68.7872L68.5729 36.375L68.3586 35.9062H68.1711V36.6295H68.2782V36.0804L68.4925 36.5491H68.6399L68.8274 36.0804V36.6295H68.9747V35.9062ZM69.564 25.125C69.564 14.9196 61.247 6.60268 51.0148 6.60268C47.3719 6.60268 43.796 7.70089 40.7692 9.69643C50.4255 17.6384 50.5728 32.6652 40.7692 40.567C43.796 42.5759 47.3987 43.6607 51.0148 43.6607C61.247 43.6741 69.564 35.3705 69.564 25.125Z" fill="#F2F2F2"/>
</svg>
